<?xml version="1.0" encoding="UTF-8" standalone="no"?>
<svg
   width="240"
   height="42"
   viewBox="0 0 240 42"
   fill="none"
   version="1.1"
   id="svg9860"
   sodipodi:docname="casey-logo-developer-webflow-ecommerce-template.svg"
   xml:space="preserve"
   inkscape:version="1.2.1 (9c6d41e, 2022-07-14)"
   xmlns:inkscape="http://www.inkscape.org/namespaces/inkscape"
   xmlns:sodipodi="http://sodipodi.sourceforge.net/DTD/sodipodi-0.dtd"
   xmlns="http://www.w3.org/2000/svg"
   xmlns:svg="http://www.w3.org/2000/svg"><sodipodi:namedview
     id="namedview9862"
     pagecolor="#ffffff"
     bordercolor="#000000"
     borderopacity="0.25"
     inkscape:showpageshadow="2"
     inkscape:pageopacity="0.0"
     inkscape:pagecheckerboard="0"
     inkscape:deskcolor="#d1d1d1"
     showgrid="false"
     inkscape:zoom="2.5958333"
     inkscape:cx="94.959872"
     inkscape:cy="28.314607"
     inkscape:window-width="2204"
     inkscape:window-height="1205"
     inkscape:window-x="1227"
     inkscape:window-y="675"
     inkscape:window-maximized="0"
     inkscape:current-layer="g9853" /><g
     clip-path="url(#clip0_2106_54660)"
     id="g9853"><path
       d="M16.3574 32.0983H21.4828L26.6082 9.90164H21.4828L16.3574 32.0983Z"
       fill="#075FE4"
       id="path9841" /><path
       d="M11.5113 9.98671L0.5 20.9981L0.50205 21.0001L0.5 21.0022L11.5113 32.0135L14.851 28.6738L7.17734 21.0001L14.851 13.3264L11.5113 9.98671Z"
       fill="#075FE4"
       id="path9843" /><path
       d="M3.83977 17.6627L0.501953 21.0007L3.83989 24.3385L7.1777 21.0005L3.83977 17.6627Z"
       fill="#075FE4"
       id="path9845" /><path
       d="M42.4995 20.998L31.4881 9.98668L28.1484 13.3264L35.8221 21.0001L28.1484 28.6738L31.4881 32.0135L42.4995 21.0021L42.4974 21.0001L42.4995 20.998Z"
       fill="#075FE4"
       id="path9847" /><path
       d="M39.1601 17.662L35.8223 20.9999L39.1602 24.3377L42.498 20.9998L39.1601 17.662Z"
       fill="#075FE4"
       id="path9849" /><g
       transform="matrix(0.4284128,0,0,-0.4284128,16.569467,335.69336)"
       id="g10"
       style="fill:#ffffff;fill-opacity:1"><g
         id="g12"
         style="fill:#ffffff;fill-opacity:1"><g
           clip-path="url(#clipPath18-3)"
           id="g14"
           style="fill:#ffffff;fill-opacity:1"><text
   id="text22"
   style="font-variant:normal;font-weight:bold;font-size:63.96px;font-family:Arial;-inkscape-font-specification:Arial-BoldMT;writing-mode:lr-tb;fill:#ffffff;fill-opacity:1;fill-rule:nonzero;stroke:none"
   transform="matrix(1,0,0,-1,72.024,710.02)"><tspan
     id="tspan20"
     y="0"
     x="0 46.179119 81.740883 117.30264 152.8644 188.42616 206.20705 248.86836 284.43011 323.50967 380.37012 398.151"
     style="fill:#ffffff;fill-opacity:1">Casey Schmid</tspan></text>
</g></g><g
         id="g24"
         style="fill:#ffffff;fill-opacity:1"><g
           clip-path="url(#clipPath30-9)"
           id="g26"
           style="fill:#ffffff;fill-opacity:1" /></g><g
         id="g32"
         style="fill:#ffffff;fill-opacity:1"><g
           clip-path="url(#clipPath38-5)"
           id="g34"
           style="fill:#ffffff;fill-opacity:1" /></g></g></g><defs
     id="defs9858"><clipPath
       id="clip0_2106_54660"><rect
         width="240"
         height="42"
         fill="white"
         id="rect9855" /></clipPath><clipPath
       id="clipPath18"
       clipPathUnits="userSpaceOnUse"><path
         style="clip-rule:evenodd"
         id="path16"
         d="M 8.866e-6,0 H 594.96001 V 842.04 H 8.866e-6 Z" /></clipPath><clipPath
       id="clipPath30"
       clipPathUnits="userSpaceOnUse"><path
         style="clip-rule:evenodd"
         id="path28"
         d="M 8.866e-6,0 H 594.96001 V 842.04 H 8.866e-6 Z" /></clipPath><clipPath
       id="clipPath38"
       clipPathUnits="userSpaceOnUse"><path
         style="clip-rule:evenodd"
         id="path36"
         d="M 8.866e-6,0 H 594.96001 V 842.04 H 8.866e-6 Z" /></clipPath><clipPath
       id="clipPath18-8"
       clipPathUnits="userSpaceOnUse"><path
         style="clip-rule:evenodd"
         id="path16-0"
         d="M 8.866e-6,0 H 594.96001 V 842.04 H 8.866e-6 Z" /></clipPath><clipPath
       id="clipPath30-4"
       clipPathUnits="userSpaceOnUse"><path
         style="clip-rule:evenodd"
         id="path28-5"
         d="M 8.866e-6,0 H 594.96001 V 842.04 H 8.866e-6 Z" /></clipPath><clipPath
       id="clipPath38-7"
       clipPathUnits="userSpaceOnUse"><path
         style="clip-rule:evenodd"
         id="path36-1"
         d="M 8.866e-6,0 H 594.96001 V 842.04 H 8.866e-6 Z" /></clipPath><clipPath
       id="clipPath18-3"
       clipPathUnits="userSpaceOnUse"><path
         style="clip-rule:evenodd"
         id="path16-01"
         d="M 8.866e-6,0 H 594.96001 V 842.04 H 8.866e-6 Z" /></clipPath><clipPath
       id="clipPath30-9"
       clipPathUnits="userSpaceOnUse"><path
         style="clip-rule:evenodd"
         id="path28-4"
         d="M 8.866e-6,0 H 594.96001 V 842.04 H 8.866e-6 Z" /></clipPath><clipPath
       id="clipPath38-5"
       clipPathUnits="userSpaceOnUse"><path
         style="clip-rule:evenodd"
         id="path36-9"
         d="M 8.866e-6,0 H 594.96001 V 842.04 H 8.866e-6 Z" /></clipPath></defs></svg>
