<?xml version="1.0" encoding="UTF-8" standalone="no"?>
<svg
   width="76"
   height="76"
   viewBox="0 0 76 76"
   fill="none"
   version="1.1"
   id="svg498"
   sodipodi:docname="css3-round-icon-developer-webflow-ecommerce-template.svg"
   xml:space="preserve"
   inkscape:version="1.2.1 (9c6d41e, 2022-07-14)"
   xmlns:inkscape="http://www.inkscape.org/namespaces/inkscape"
   xmlns:sodipodi="http://sodipodi.sourceforge.net/DTD/sodipodi-0.dtd"
   xmlns="http://www.w3.org/2000/svg"
   xmlns:svg="http://www.w3.org/2000/svg"><defs
     id="defs502" /><sodipodi:namedview
     id="namedview500"
     pagecolor="#ffffff"
     bordercolor="#000000"
     borderopacity="0.25"
     inkscape:showpageshadow="2"
     inkscape:pageopacity="0.0"
     inkscape:pagecheckerboard="0"
     inkscape:deskcolor="#d1d1d1"
     showgrid="false"
     inkscape:zoom="4"
     inkscape:cx="33.25"
     inkscape:cy="36.125"
     inkscape:window-width="1681"
     inkscape:window-height="1205"
     inkscape:window-x="1912"
     inkscape:window-y="436"
     inkscape:window-maximized="0"
     inkscape:current-layer="svg498" /><circle
     cx="38"
     cy="38"
     fill="#075FE4"
     id="circle488"
     r="38" /><path
     d="M21.6419 57.8512L18 17H58L54.3536 57.8542L37.9903 62.3905L21.6419 57.8512Z"
     fill="white"
     id="path490" /><path
     d="M38.0032 48.5099L37.9968 48.5121L32.4161 47.0025L32.0429 42.8298H27.0137L27.7329 50.8736L37.9955 53.724L38.0032 53.7218V48.5099Z"
     fill="#075FE4"
     id="path496" /><g
     id="g3013"
     transform="matrix(0.10981545,0,0,0.10985444,9.9016059,6.0458349)"
     inkscape:transform-center-x="-0.7206471"
     inkscape:transform-center-y="22.039547"
     style="fill:#075fe4;fill-opacity:1;stroke:#075fe4;stroke-opacity:1"><polygon
       id="polygon2993"
       points="256,313.627 256,268.217 150.31,268.217 154.38,313.627 "
       style="fill:#075fe4;fill-opacity:1;stroke:#075fe4;stroke-opacity:1" /><polygon
       id="polygon2995-8"
       points="256,176.305 255.843,176.305 142.132,176.305 146.26,221.716 256,221.716 "
       style="fill:#075fe4;fill-opacity:1;stroke:#075fe4;stroke-opacity:1" /><polygon
       id="polygon2997"
       points="156.409,336.333 162.771,407.634 255.791,433.457 256,433.399 256,386.153 255.801,386.206 205.227,372.55 201.994,336.333 177.419,336.333 "
       style="fill:#075fe4;fill-opacity:1;stroke:#075fe4;stroke-opacity:1" /><polygon
       id="polygon3005-5"
       points="311.761,313.627 306.49,372.521 255.843,386.191 255.843,433.435 348.937,407.634 349.62,399.962 360.291,280.411 361.399,268.217 369.597,176.305 255.843,176.305 255.843,221.716 319.831,221.716 315.699,268.217 255.843,268.217 255.843,313.627 "
       style="fill:#075fe4;fill-opacity:1;stroke:#075fe4;stroke-opacity:1" /></g></svg>
