<?xml version="1.0" encoding="UTF-8" standalone="no"?>
<svg
   width="76"
   height="76"
   viewBox="0 0 76 76"
   fill="none"
   version="1.1"
   id="svg13"
   sodipodi:docname="git-round-icon.svg"
   inkscape:version="1.2.1 (9c6d41e, 2022-07-14)"
   xmlns:inkscape="http://www.inkscape.org/namespaces/inkscape"
   xmlns:sodipodi="http://sodipodi.sourceforge.net/DTD/sodipodi-0.dtd"
   xmlns="http://www.w3.org/2000/svg"
   xmlns:svg="http://www.w3.org/2000/svg">
  <sodipodi:namedview
     id="namedview15"
     pagecolor="#ffffff"
     bordercolor="#000000"
     borderopacity="0.25"
     inkscape:showpageshadow="2"
     inkscape:pageopacity="0.0"
     inkscape:pagecheckerboard="0"
     inkscape:deskcolor="#d1d1d1"
     showgrid="false"
     inkscape:zoom="13.513158"
     inkscape:cx="37.740993"
     inkscape:cy="41.145083"
     inkscape:window-width="2032"
     inkscape:window-height="1478"
     inkscape:window-x="0"
     inkscape:window-y="25"
     inkscape:window-maximized="0"
     inkscape:current-layer="svg13" />
  <circle
     cx="38"
     cy="38"
     r="38"
     fill="#075FE4"
     id="circle2" />
  <defs
     id="defs11">
    <clipPath
       id="clip0_2123_56549">
      <rect
         width="53.3158"
         height="52"
         fill="white"
         transform="translate(11 12)"
         id="rect8" />
    </clipPath>
  </defs>
  <path
     d="M 62.413032,34.887905 39.529281,12.00743 a 3.3739283,3.3739283 0 0 0 -4.772634,0 l -4.749705,4.749705 6.027212,6.027212 a 4.0061304,4.0061304 0 0 1 5.07727,5.110027 l 5.807743,5.811019 a 4.0094061,4.0094061 0 0 1 4.150259,6.633208 4.0159574,4.0159574 0 0 1 -6.557868,-4.369728 L 39.096894,30.550934 V 44.809875 A 4.0159574,4.0159574 0 1 1 35.79503,44.691951 V 30.301983 A 4.0159574,4.0159574 0 0 1 33.613442,25.034725 L 27.674673,19.09268 11.984268,34.783084 a 3.3739283,3.3739283 0 0 0 0,4.772635 L 34.868019,62.43947 a 3.3739283,3.3739283 0 0 0 4.772635,0 L 62.416308,39.663816 a 3.377204,3.377204 0 0 0 0,-4.772635"
     fill="#ffffff"
     id="path140"
     style="color:#ffffff;stroke-width:3.27566" />
</svg>
