<?xml version="1.0" encoding="UTF-8" standalone="no"?>
<svg
   width="76"
   height="76"
   viewBox="0 0 76 76"
   fill="none"
   version="1.1"
   id="svg6"
   sodipodi:docname="iterm2-round-icon.svg"
   inkscape:version="1.2.1 (9c6d41e, 2022-07-14)"
   xml:space="preserve"
   xmlns:inkscape="http://www.inkscape.org/namespaces/inkscape"
   xmlns:sodipodi="http://sodipodi.sourceforge.net/DTD/sodipodi-0.dtd"
   xmlns="http://www.w3.org/2000/svg"
   xmlns:svg="http://www.w3.org/2000/svg"><defs
     id="defs10" /><sodipodi:namedview
     id="namedview8"
     pagecolor="#ffffff"
     bordercolor="#000000"
     borderopacity="0.25"
     inkscape:showpageshadow="2"
     inkscape:pageopacity="0.0"
     inkscape:pagecheckerboard="0"
     inkscape:deskcolor="#d1d1d1"
     showgrid="false"
     inkscape:zoom="9.5552456"
     inkscape:cx="28.832331"
     inkscape:cy="37.88495"
     inkscape:window-width="2182"
     inkscape:window-height="1612"
     inkscape:window-x="0"
     inkscape:window-y="25"
     inkscape:window-maximized="0"
     inkscape:current-layer="svg6" /><circle
     cx="38"
     cy="38"
     r="38"
     fill="#075FE4"
     id="circle2" /><path
     d="m 29.908315,21.973652 h 5.066477 v 10.132953 h -5.066477 z m -3.026444,3.26168 c -0.276748,-0.205584 -0.537682,-0.361749 -0.78478,-0.472449 -0.249073,-0.110699 -0.553497,-0.16605 -0.915247,-0.16605 -0.330121,0 -0.589078,0.06721 -0.772919,0.201632 -0.185817,0.132444 -0.278725,0.31826 -0.278725,0.553497 0,0.181864 0.08896,0.332099 0.266864,0.448729 0.175933,0.118606 0.399309,0.231282 0.666174,0.336051 0.266864,0.106746 0.55745,0.217446 0.867805,0.332099 0.310353,0.112676 0.600939,0.253027 0.867803,0.419076 0.266866,0.164072 0.490241,0.367681 0.666175,0.606871 0.177909,0.23919 0.266865,0.541636 0.266865,0.903386 0,0.504077 -0.179888,0.931062 -0.537683,1.28095 -0.357797,0.34989 -0.859898,0.571289 -1.504327,0.666175 v 1.735608 H 24.744977 V 30.36902 c -0.409192,-0.03954 -0.814431,-0.144305 -1.215718,-0.312332 -0.401285,-0.170002 -0.74722,-0.375587 -1.039784,-0.620706 l 0.614778,-0.931063 c 0.338029,0.22733 0.68001,0.413147 1.025947,0.553498 0.347912,0.142328 0.725477,0.213491 1.134669,0.213491 0.377564,0 0.66222,-0.07116 0.855944,-0.213491 0.191747,-0.140351 0.28861,-0.330122 0.28861,-0.565358 0,-0.205584 -0.08896,-0.373611 -0.266866,-0.508032 -0.175933,-0.13442 -0.399309,-0.256981 -0.666173,-0.371633 -0.266865,-0.114653 -0.555474,-0.229306 -0.861874,-0.341982 -0.306401,-0.114654 -0.593033,-0.255005 -0.861875,-0.419077 -0.266864,-0.16605 -0.488264,-0.363727 -0.666173,-0.596986 -0.17791,-0.231283 -0.264888,-0.525823 -0.264888,-0.879666 0,-0.510007 0.171979,-0.927108 0.517915,-1.251298 0.347913,-0.322215 0.814432,-0.521869 1.405488,-0.600941 v -1.545839 h 0.944899 v 1.533979 c 0.417099,0.04745 0.772919,0.154188 1.067459,0.318261 0.294539,0.166049 0.565358,0.369656 0.808501,0.614777 z m -4.279719,-4.827287 c -0.90141,0.482334 -1.607119,1.188043 -2.089453,2.089453 -0.482332,0.901409 -0.737336,1.794912 -0.737336,4.257975 v 22.677573 c 0,2.463063 0.255004,3.356566 0.737336,4.257975 0.482334,0.90141 1.188043,1.607119 2.089453,2.089453 0.901409,0.482332 1.794912,0.737336 4.257975,0.737336 H 49.5377 c 2.463063,0 3.356566,-0.255004 4.257975,-0.737336 0.90141,-0.482334 1.607119,-1.188043 2.089453,-2.089453 0.482332,-0.901409 0.737336,-1.794912 0.737336,-4.257975 V 26.755473 c 0,-2.463063 -0.255004,-3.356566 -0.737336,-4.257975 -0.482334,-0.90141 -1.188043,-1.607119 -2.089453,-2.089453 C 52.894266,19.925713 52.000763,19.670709 49.5377,19.670709 H 26.860127 c -2.463063,0 -3.356566,0.255004 -4.257975,0.737336 z m 4.34693,-4.192741 h 22.499663 c 3.696571,0 5.036825,0.385471 6.386963,1.106995 1.352115,0.723499 2.411667,1.783051 3.135166,3.135166 0.721524,1.350138 1.106995,2.690392 1.106995,6.386963 v 22.499663 c 0,3.696571 -0.385471,5.036825 -1.106995,6.386963 -0.723499,1.352115 -1.783051,2.411667 -3.135166,3.135166 -1.350138,0.721524 -2.690392,1.106995 -6.386963,1.106995 H 26.949082 c -3.696571,0 -5.036825,-0.385471 -6.386963,-1.106995 -1.352115,-0.723499 -2.411667,-1.783051 -3.135166,-3.135166 -0.721524,-1.350138 -1.106995,-2.690392 -1.106995,-6.386963 V 26.844428 c 0,-3.696571 0.385471,-5.036825 1.106995,-6.386963 0.723499,-1.352115 1.783051,-2.411667 3.135166,-3.135166 1.350138,-0.721524 2.690392,-1.106995 6.386963,-1.106995 z m -7.051159,-0.426983 c -1.727703,0.923154 -3.081794,2.277245 -4.004948,4.004948 -0.923155,1.725725 -1.415372,3.437613 -1.415372,8.16013 V 48.23512 c 0,4.722517 0.492217,6.434405 1.415372,8.16013 0.923154,1.727703 2.277245,3.081794 4.004948,4.004948 1.725725,0.923155 3.437613,1.415372 8.16013,1.415372 h 20.281721 c 4.722517,0 6.434405,-0.492217 8.16013,-1.415372 1.727703,-0.923154 3.081794,-2.277245 4.004948,-4.004948 0.923155,-1.725725 1.415372,-3.437613 1.415372,-8.16013 V 27.953399 c 0,-4.722517 -0.492217,-6.434405 -1.415372,-8.16013 -0.923154,-1.727703 -2.277245,-3.081794 -4.004948,-4.004948 -1.725725,-0.923155 -3.437613,-1.415372 -8.16013,-1.415372 H 28.058053 c -4.722517,0 -6.434405,0.492217 -8.16013,1.415372 z"
     id="path415"
     style="display:inline;fill:#ffffff;fill-opacity:1;stroke-width:1.97678" /></svg>
