<?xml version="1.0" encoding="UTF-8" standalone="no"?>
<svg
   width="76"
   height="76"
   viewBox="0 0 76 76"
   fill="none"
   version="1.1"
   id="svg498"
   sodipodi:docname="jquery-round-icon-developer-webflow-ecommerce-template.svg"
   xml:space="preserve"
   inkscape:version="1.2.1 (9c6d41e, 2022-07-14)"
   xmlns:inkscape="http://www.inkscape.org/namespaces/inkscape"
   xmlns:sodipodi="http://sodipodi.sourceforge.net/DTD/sodipodi-0.dtd"
   xmlns="http://www.w3.org/2000/svg"
   xmlns:svg="http://www.w3.org/2000/svg"><defs
     id="defs502" /><sodipodi:namedview
     id="namedview500"
     pagecolor="#ffffff"
     bordercolor="#000000"
     borderopacity="0.25"
     inkscape:showpageshadow="2"
     inkscape:pageopacity="0.0"
     inkscape:pagecheckerboard="0"
     inkscape:deskcolor="#d1d1d1"
     showgrid="false"
     inkscape:zoom="8"
     inkscape:cx="62.125"
     inkscape:cy="37.625"
     inkscape:window-width="2015"
     inkscape:window-height="1482"
     inkscape:window-x="967"
     inkscape:window-y="146"
     inkscape:window-maximized="0"
     inkscape:current-layer="svg498" /><circle
     cx="38"
     cy="38"
     fill="#075FE4"
     id="circle488"
     r="38" /><g
     id="g18202"
     transform="matrix(0.09227842,0,0,0.09227842,-9.2783063,-10.700527)" /><style
     type="text/css"
     id="style7208">.st0{fill-rule:evenodd;clip-rule:evenodd;fill:#21609B;}</style><g
     id="g7216"
     transform="matrix(0.38620496,0,0,0.38620496,14.25741,13.992846)"><path
       class="st0"
       d="m 120.03,90.36 -0.55,1.43 c -9.37,18.25 -25.98,29.45 -49.67,29.94 -11.07,0.23 -21.63,-2.61 -28.52,-5.7 C 26.41,109.35 13.9,96.95 7.07,83.71 -2.73,64.73 -4.5,38.32 15.88,18.6 c 0.31,0 -2.47,4.28 -2.16,4.28 l -0.56,1.83 c -14.69,45.98 30.56,85.38 74.54,80.88 10.58,-1.1 24.06,-6.89 32.33,-15.23 z m 0,0 z"
       id="path7210"
       style="fill:#ffffff;fill-opacity:1" /><path
       class="st0"
       d="m 93.41,71.35 c 11.07,0.08 22.62,-5.1 29.47,-12.36 C 116.89,74.19 99.55,83.96 76.3,80.85 56.83,78.24 38.29,58.65 36.38,39.02 34.98,24.73 39.96,16.21 48.17,5.86 45.32,11.27 44.25,15.44 43.99,18.1 40.86,49.02 68.67,71.19 93.41,71.35 Z m 0,0 z"
       id="path7212"
       style="fill:#ffffff;fill-opacity:1" /><path
       class="st0"
       d="m 121.77,32.97 c -1.72,3.95 -11.62,11.4 -16,12.33 C 88.45,48.99 77.36,40.78 71.55,31.43 70.69,30.03 69.09,26.22 68.8,25.25 66.55,17.59 67.58,6 74.3,0 c -2.02,5.7 -2.32,12.33 -1.25,16.64 0.65,2.6 2.61,7.15 4.58,10.01 3.58,5.21 5.85,6.47 10.46,9.24 2.07,1.24 4.3,2.24 5.26,2.52 4.36,1.28 13.57,4.66 28.42,-5.44 z m 0,0 z"
       id="path7214"
       style="fill:#ffffff;fill-opacity:1" /></g></svg>
