<?xml version="1.0" encoding="UTF-8" standalone="no"?>
<svg
   width="76"
   height="76"
   viewBox="0 0 76 76"
   fill="none"
   version="1.1"
   id="svg498"
   sodipodi:docname="laravel-round-icon-developer-webflow-ecommerce-template.svg"
   xml:space="preserve"
   inkscape:version="1.2.1 (9c6d41e, 2022-07-14)"
   xmlns:inkscape="http://www.inkscape.org/namespaces/inkscape"
   xmlns:sodipodi="http://sodipodi.sourceforge.net/DTD/sodipodi-0.dtd"
   xmlns="http://www.w3.org/2000/svg"
   xmlns:svg="http://www.w3.org/2000/svg"><defs
     id="defs502" /><sodipodi:namedview
     id="namedview500"
     pagecolor="#ffffff"
     bordercolor="#000000"
     borderopacity="0.25"
     inkscape:showpageshadow="2"
     inkscape:pageopacity="0.0"
     inkscape:pagecheckerboard="0"
     inkscape:deskcolor="#d1d1d1"
     showgrid="false"
     inkscape:zoom="16"
     inkscape:cx="34.875"
     inkscape:cy="42"
     inkscape:window-width="2015"
     inkscape:window-height="1482"
     inkscape:window-x="1416"
     inkscape:window-y="285"
     inkscape:window-maximized="0"
     inkscape:current-layer="svg498" /><circle
     cx="38"
     cy="38"
     fill="#075FE4"
     id="circle488"
     r="38" /><path
     d="m 61.09667,25.329898 a 0.72259467,0.72259467 0 0 1 0.02501,0.186678 v 9.800134 a 0.71455591,0.71455591 0 0 1 -0.359064,0.619878 l -8.225432,4.735719 v 9.386585 c 0,0.255454 -0.135766,0.491257 -0.357278,0.619877 L 35.01002,60.562864 c -0.0393,0.02233 -0.08217,0.03662 -0.125048,0.05181 -0.01608,0.0054 -0.03126,0.01518 -0.04823,0.01965 a 0.71902189,0.71902189 0 0 1 -0.36621,0 c -0.01965,-0.0054 -0.03751,-0.01608 -0.05627,-0.02322 -0.0393,-0.01429 -0.08039,-0.0268 -0.117902,-0.04823 L 17.130044,50.678769 A 0.71544911,0.71544911 0 0 1 16.77098,50.058892 V 20.658489 c 0,-0.06431 0.0089,-0.126834 0.02501,-0.187571 0.0054,-0.02054 0.01786,-0.0393 0.02501,-0.05984 0.0134,-0.03751 0.0259,-0.07592 0.04555,-0.110756 0.0134,-0.02322 0.03305,-0.04198 0.04913,-0.06342 0.02054,-0.02858 0.0393,-0.05806 0.06342,-0.08307 0.02054,-0.02054 0.04734,-0.03573 0.07056,-0.05359 0.0259,-0.02144 0.04913,-0.04466 0.0786,-0.06163 h 8.93e-4 l 8.583603,-4.942048 a 0.7163423,0.7163423 0 0 1 0.714556,0 l 8.583603,4.942048 h 0.0018 c 0.02858,0.01786 0.0527,0.04019 0.0786,0.06074 0.02322,0.01786 0.04913,0.03394 0.06967,0.05359 0.02501,0.0259 0.04287,0.05538 0.06431,0.08396 0.01518,0.02144 0.03573,0.04019 0.04823,0.06342 0.02054,0.03573 0.03215,0.07324 0.04645,0.110756 0.0071,0.02054 0.01965,0.0393 0.02501,0.06074 a 0.72259467,0.72259467 0 0 1 0.02501,0.186678 V 39.02169 L 42.5227,34.903168 V 25.51569 c 0,-0.06252 0.0089,-0.125941 0.02501,-0.185785 0.0063,-0.02144 0.01786,-0.04019 0.02501,-0.06074 0.01429,-0.03751 0.0268,-0.07592 0.04645,-0.110756 0.0134,-0.02322 0.03305,-0.04198 0.04823,-0.06342 0.02144,-0.02858 0.0393,-0.05806 0.06431,-0.08307 0.02054,-0.02054 0.04645,-0.03573 0.06967,-0.05359 0.0268,-0.02144 0.05002,-0.04466 0.0786,-0.06163 h 8.93e-4 l 8.584496,-4.942048 a 0.71544911,0.71544911 0 0 1 0.714556,0 l 8.583603,4.942048 c 0.03037,0.01786 0.05359,0.04019 0.08039,0.06074 0.02233,0.01786 0.04823,0.03394 0.06878,0.05359 0.02501,0.0259 0.04287,0.05538 0.06431,0.08396 0.01608,0.02144 0.03573,0.04019 0.04823,0.06342 0.02054,0.03484 0.03216,0.07324 0.04645,0.110756 0.008,0.02054 0.01965,0.0393 0.02501,0.06074 z m -1.405889,9.573263 v -8.14951 l -3.003815,1.729225 -4.149783,2.389297 v 8.14951 l 7.154491,-4.118522 z m -8.583603,14.742182 v -8.154869 l -4.081901,2.331238 -11.656193,6.652516 v 8.231684 z m -32.9053,-27.749779 v 27.749779 l 15.736308,9.059676 v -8.229898 l -8.220966,-4.652652 -0.0027,-0.0018 -0.0036,-0.0018 c -0.02769,-0.01608 -0.05091,-0.0393 -0.07681,-0.05895 -0.02233,-0.01786 -0.04823,-0.03216 -0.06788,-0.05181 l -0.0018,-0.0027 c -0.02322,-0.02233 -0.0393,-0.05002 -0.05895,-0.07503 -0.01786,-0.02412 -0.0393,-0.04466 -0.05359,-0.06967 l -8.93e-4,-0.0027 c -0.01608,-0.0268 -0.0259,-0.05895 -0.03751,-0.08932 -0.01161,-0.0268 -0.0268,-0.05181 -0.03394,-0.08039 v -8.93e-4 c -0.0089,-0.03394 -0.01072,-0.06967 -0.01429,-0.104504 -0.0036,-0.0268 -0.01072,-0.05359 -0.01072,-0.08039 v -0.0018 -19.186719 l -4.14889,-2.39019 -3.003815,-1.727439 z m 7.869047,-5.35381 -7.151811,4.116735 7.150025,4.116735 7.150918,-4.117628 -7.150918,-4.115842 z m 3.719264,25.691858 4.14889,-2.388403 V 21.895564 l -3.003814,1.729225 -4.149784,2.389297 V 43.96373 Z m 22.032438,-20.833771 -7.150918,4.116735 7.150918,4.116735 7.150025,-4.117628 z m -0.715449,9.472332 -4.149783,-2.389297 -3.003815,-1.729225 v 8.14951 l 4.14889,2.388403 3.004708,1.730119 z m -16.454436,18.36498 10.488787,-5.987979 5.243054,-2.992203 -7.145559,-4.114055 -8.227218,4.736612 -7.498371,4.316811 z"
     fill="#ff2d20"
     fill-rule="evenodd"
     id="path204"
     style="fill:#ffffff;fill-opacity:1;stroke-width:0.893195" /><g
     id="g18202"
     transform="matrix(0.09227842,0,0,0.09227842,-9.2783063,-10.700527)" /></svg>
