<?xml version="1.0" encoding="UTF-8" standalone="no"?>
<svg
   width="76"
   height="76"
   viewBox="0 0 76 76"
   fill="none"
   version="1.1"
   id="svg13"
   sodipodi:docname="loom-round-icon.svg"
   inkscape:version="1.2.1 (9c6d41e, 2022-07-14)"
   xmlns:inkscape="http://www.inkscape.org/namespaces/inkscape"
   xmlns:sodipodi="http://sodipodi.sourceforge.net/DTD/sodipodi-0.dtd"
   xmlns="http://www.w3.org/2000/svg"
   xmlns:svg="http://www.w3.org/2000/svg">
  <sodipodi:namedview
     id="namedview15"
     pagecolor="#ffffff"
     bordercolor="#000000"
     borderopacity="0.25"
     inkscape:showpageshadow="2"
     inkscape:pageopacity="0.0"
     inkscape:pagecheckerboard="0"
     inkscape:deskcolor="#d1d1d1"
     showgrid="false"
     inkscape:zoom="13.513158"
     inkscape:cx="28.749756"
     inkscape:cy="33.596884"
     inkscape:window-width="2032"
     inkscape:window-height="1478"
     inkscape:window-x="0"
     inkscape:window-y="25"
     inkscape:window-maximized="0"
     inkscape:current-layer="svg13" />
  <circle
     cx="38"
     cy="38"
     r="38"
     fill="#075FE4"
     id="circle2" />
  <defs
     id="defs11">
    <clipPath
       id="clip0_2123_56549">
      <rect
         width="53.3158"
         height="52"
         fill="white"
         transform="translate(11 12)"
         id="rect8" />
    </clipPath>
  </defs>
  <path
     d="M 62.977964,34.680304 H 48.379827 L 61.022508,27.381053 58.246107,22.570791 45.603432,29.870016 52.901054,17.228341 48.090734,14.45028 40.79312,27.091934 V 12.49488 h -5.553109 v 14.59845 l -7.300409,-12.64305 -4.808762,2.776665 7.299015,12.641675 -12.642702,-7.297829 -2.776587,4.808867 12.642703,7.29925 H 13.055217 v 5.553347 h 14.596658 l -12.641309,7.299196 2.776587,4.810312 12.641301,-7.297877 -7.299008,12.641622 4.810156,2.776664 7.299008,-12.642944 v 14.5984 h 5.553195 V 47.820544 l 7.297614,12.641628 4.810049,-2.776664 -7.29893,-12.642938 12.642674,7.299193 2.776658,-4.810312 -12.641359,-7.29788 H 62.97507 V 34.680304 Z M 38.016591,45.008868 c -4.187211,0 -7.58116,-3.393812 -7.58116,-7.581235 0,-4.187343 3.393949,-7.581366 7.58116,-7.581366 4.187238,0 7.581053,3.394023 7.581053,7.581366 0,4.187423 -3.393815,7.581235 -7.581053,7.581235 z"
     fill="#625df5"
     id="path470"
     style="fill:#ffffff;fill-opacity:1;stroke-width:0.323456" />
</svg>
