<?xml version="1.0" encoding="UTF-8" standalone="no"?>
<svg
   width="76"
   height="76"
   viewBox="0 0 76 76"
   fill="none"
   version="1.1"
   id="svg13"
   sodipodi:docname="mamp-round-icon.svg"
   inkscape:version="1.2.1 (9c6d41e, 2022-07-14)"
   xmlns:inkscape="http://www.inkscape.org/namespaces/inkscape"
   xmlns:sodipodi="http://sodipodi.sourceforge.net/DTD/sodipodi-0.dtd"
   xmlns="http://www.w3.org/2000/svg"
   xmlns:svg="http://www.w3.org/2000/svg">
  <sodipodi:namedview
     id="namedview15"
     pagecolor="#ffffff"
     bordercolor="#000000"
     borderopacity="0.25"
     inkscape:showpageshadow="2"
     inkscape:pageopacity="0.0"
     inkscape:pagecheckerboard="0"
     inkscape:deskcolor="#d1d1d1"
     showgrid="false"
     inkscape:zoom="13.513158"
     inkscape:cx="31.339824"
     inkscape:cy="41.219084"
     inkscape:window-width="2032"
     inkscape:window-height="1478"
     inkscape:window-x="0"
     inkscape:window-y="25"
     inkscape:window-maximized="0"
     inkscape:current-layer="svg13" />
  <circle
     cx="38"
     cy="38"
     r="38"
     fill="#075FE4"
     id="circle2" />
  <defs
     id="defs11">
    <clipPath
       id="clip0_2123_56549">
      <rect
         width="53.3158"
         height="52"
         fill="white"
         transform="translate(11 12)"
         id="rect8" />
    </clipPath>
  </defs>
  <path
     d="m 12.420461,32.683189 c 0.53078,-3.67213 4.634035,-15.119647 16.148711,-17.288262 6.796151,-1.282539 15.175977,2.240108 21.057886,8.206508 -2.933372,2.012632 -4.894009,3.75229 -6.378026,5.866744 1.107055,4.098923 4.371894,5.769255 6.66833,6.464685 -2.545578,-1.540346 -4.153083,-2.991866 -5.147484,-6.092055 5.444287,-6.47335 11.276368,-8.566139 11.768152,-8.618134 4.553877,3.633134 7.768887,10.258135 7.651898,17.234102 -0.13432,8.076522 -4.527878,16.397853 -9.564872,19.760183 -0.688931,0.327133 -2.281271,-0.541614 -2.497916,-1.488351 1.03123,-2.393926 3.468485,-8.221674 3.769621,-12.578404 0.283806,-4.176914 -2.48275,-6.6315 -4.80735,-3.611471 -3.225843,5.403124 -4.634035,12.114783 -6.042226,19.355056 -2.372262,0.678099 -6.395358,0.849248 -8.137184,-0.078 -0.218811,-4.480216 0.825418,-12.13428 -2.14695,-14.818512 -1.273873,-1.154716 -2.53258,-0.617438 -3.383994,0.444123 -2.149118,2.658234 -2.105789,9.562706 -1.68983,14.036424 -2.402592,1.486183 -6.477683,1.176381 -9.053591,0.253475 -1.033396,-7.030128 -3.459819,-15.602767 -5.44212,-22.162775 -0.552445,2.634402 -0.821084,5.77142 -0.736593,8.466483 -1.323701,-1.078887 -2.833716,-6.750651 -2.036462,-13.351822 z"
     id="path1340"
     style="fill:#ffffff;fill-opacity:1;stroke-width:2.16645" />
</svg>
