<?xml version="1.0" encoding="UTF-8" standalone="no"?>
<svg
   width="76"
   height="76"
   viewBox="0 0 76 76"
   fill="none"
   version="1.1"
   id="svg498"
   sodipodi:docname="shopify-round-icon-developer-webflow-ecommerce-template.svg"
   xml:space="preserve"
   inkscape:version="1.2.1 (9c6d41e, 2022-07-14)"
   xmlns:inkscape="http://www.inkscape.org/namespaces/inkscape"
   xmlns:sodipodi="http://sodipodi.sourceforge.net/DTD/sodipodi-0.dtd"
   xmlns="http://www.w3.org/2000/svg"
   xmlns:svg="http://www.w3.org/2000/svg"><defs
     id="defs502" /><sodipodi:namedview
     id="namedview500"
     pagecolor="#ffffff"
     bordercolor="#000000"
     borderopacity="0.25"
     inkscape:showpageshadow="2"
     inkscape:pageopacity="0.0"
     inkscape:pagecheckerboard="0"
     inkscape:deskcolor="#d1d1d1"
     showgrid="false"
     inkscape:zoom="11.313708"
     inkscape:cx="40.65864"
     inkscape:cy="45.122252"
     inkscape:window-width="1681"
     inkscape:window-height="1205"
     inkscape:window-x="1740"
     inkscape:window-y="397"
     inkscape:window-maximized="0"
     inkscape:current-layer="svg498" /><circle
     cx="38"
     cy="38"
     fill="#075FE4"
     id="circle488"
     r="38" /><g
     id="g18202"
     transform="matrix(0.09227842,0,0,0.09227842,-9.2783063,-10.700527)"><path
       d="m 597.3,308 c 0,0 -6,1.7 -15.9,4.7 -1.7,-5.6 -4.3,-12 -7.7,-18.9 -11.2,-21.5 -27.9,-33.1 -47.7,-33.1 -1.3,0 -2.6,0 -4.3,0.4 -0.4,-0.9 -1.3,-1.3 -1.7,-2.1 -8.6,-9.5 -19.8,-13.8 -33.1,-13.3 -25.8,0.9 -51.6,19.3 -72.2,52.4 -14.6,23.2 -25.8,52.4 -28.8,75.2 -29.7,9 -50.3,15.5 -50.7,15.9 -15,4.7 -15.5,5.2 -17.2,19.3 -1.3,10.7 -40.8,313.4 -40.8,313.4 l 325,56.3 V 307.6 c -2.7,0 -4,0.4 -4.9,0.4 z m -75.2,23.2 c -17.2,5.2 -36.1,11.2 -54.6,16.8 5.2,-20.2 15.5,-40.4 27.5,-53.7 4.7,-4.7 11.2,-10.3 18.5,-13.8 7.3,15.5 9,36.6 8.6,50.7 z m -35.2,-67.9 c 6,0 11.2,1.3 15.5,3.9 -6.9,3.4 -13.8,9 -20.2,15.5 -16.3,17.6 -28.8,45.1 -34,71.4 -15.5,4.7 -31,9.5 -45.1,13.8 9.4,-41.4 44.2,-103.7 83.8,-104.6 z M 437,499.8 c 1.7,27.5 74.4,33.5 78.7,98.4 3,51.2 -27.1,86 -70.5,88.6 C 392.8,690.2 364,659.3 364,659.3 L 375.2,612 c 0,0 28.8,21.9 52,20.2 15,-0.9 20.6,-13.3 20.2,-21.9 -2.1,-36.1 -61.5,-34 -65.3,-93.3 -3.4,-49.9 29.2,-100.2 101.5,-104.9 27.9,-1.7 42.1,5.2 42.1,5.2 l -16.3,61.9 c 0,0 -18.5,-8.6 -40.4,-6.9 -32,2.1 -32.4,22.3 -32,27.5 z M 539.3,326.1 c 0,-12.9 -1.7,-31.4 -7.7,-46.9 19.8,3.9 29.2,25.8 33.5,39.1 -7.7,2.2 -16.3,4.8 -25.8,7.8 z M 612,777.5 747,744 c 0,0 -58,-392.5 -58.5,-395.1 -0.4,-2.6 -2.6,-4.3 -4.7,-4.3 -2.1,0 -40,-0.9 -40,-0.9 0,0 -23.2,-22.4 -31.8,-31 z"
       style="fill:#ffffff"
       id="path18192" /></g></svg>
