<?xml version="1.0" encoding="UTF-8" standalone="no"?>
<svg
   width="76"
   height="76"
   viewBox="0 0 76 76"
   fill="none"
   version="1.1"
   id="svg13"
   sodipodi:docname="upwork-round-icon.svg"
   inkscape:version="1.2.1 (9c6d41e, 2022-07-14)"
   xml:space="preserve"
   xmlns:inkscape="http://www.inkscape.org/namespaces/inkscape"
   xmlns:sodipodi="http://sodipodi.sourceforge.net/DTD/sodipodi-0.dtd"
   xmlns="http://www.w3.org/2000/svg"
   xmlns:svg="http://www.w3.org/2000/svg"><sodipodi:namedview
     id="namedview15"
     pagecolor="#ffffff"
     bordercolor="#000000"
     borderopacity="0.25"
     inkscape:showpageshadow="2"
     inkscape:pageopacity="0.0"
     inkscape:pagecheckerboard="0"
     inkscape:deskcolor="#d1d1d1"
     showgrid="false"
     inkscape:zoom="13.513158"
     inkscape:cx="37.074975"
     inkscape:cy="41.219084"
     inkscape:window-width="2032"
     inkscape:window-height="1478"
     inkscape:window-x="0"
     inkscape:window-y="25"
     inkscape:window-maximized="0"
     inkscape:current-layer="svg13" /><circle
     cx="38"
     cy="38"
     r="38"
     fill="#075FE4"
     id="circle2" /><defs
     id="defs11"><clipPath
       id="clip0_2123_56549"><rect
         width="53.3158"
         height="52"
         fill="white"
         transform="translate(11 12)"
         id="rect8" /></clipPath></defs><path
     d="m 53.447967,25.443741 c -5.977599,0 -10.488995,3.947471 -12.293553,10.15064 -2.819622,-4.398611 -5.07532,-9.361146 -6.315954,-13.646972 h -6.315954 v 16.579379 c 0,3.270762 -2.706837,5.977599 -5.977599,5.977599 -3.270762,0 -5.977598,-2.706837 -5.977598,-5.977599 V 22.060194 h -6.090384 v 16.579379 c 0,6.879878 5.52646,12.406338 12.293553,12.406338 6.767092,0 12.293552,-5.52646 12.293552,-12.406338 V 35.81995 c 1.240634,2.481268 2.819623,5.188105 4.511396,7.556588 l -3.947472,18.383937 h 6.428739 l 2.706838,-13.421402 c 2.481268,1.578989 5.30089,2.481268 8.684437,2.481268 6.879878,0 12.519119,-5.639245 12.519119,-12.857478 0,-6.879878 -5.639242,-12.519122 -12.51912,-12.519122 z m 0,19.060646 c -2.481268,0 -5.07532,-1.127849 -7.105448,-2.819622 l 0.676709,-2.481268 v -0.112785 c 0.45114,-2.706837 1.917343,-7.218233 6.541524,-7.218233 3.496331,0 6.315954,2.819623 6.315954,6.315954 -0.112785,3.496332 -3.157977,6.315954 -6.428739,6.315954 z"
     id="path357"
     style="fill:#ffffff;fill-opacity:1;stroke-width:1.12785" /></svg>
