<?xml version="1.0" encoding="UTF-8" standalone="no"?>
<svg
   width="24"
   height="24"
   viewBox="0 0 24 24"
   fill="none"
   version="1.1"
   id="svg13"
   sodipodi:docname="upwork-social-icon.svg"
   inkscape:version="1.2.1 (9c6d41e, 2022-07-14)"
   xml:space="preserve"
   xmlns:inkscape="http://www.inkscape.org/namespaces/inkscape"
   xmlns:sodipodi="http://sodipodi.sourceforge.net/DTD/sodipodi-0.dtd"
   xmlns="http://www.w3.org/2000/svg"
   xmlns:svg="http://www.w3.org/2000/svg"><sodipodi:namedview
     id="namedview15"
     pagecolor="#ffffff"
     bordercolor="#000000"
     borderopacity="0.25"
     inkscape:showpageshadow="2"
     inkscape:pageopacity="0.0"
     inkscape:pagecheckerboard="0"
     inkscape:deskcolor="#d1d1d1"
     showgrid="false"
     inkscape:zoom="38.220983"
     inkscape:cx="9.0002918"
     inkscape:cy="16.142965"
     inkscape:window-width="2032"
     inkscape:window-height="1478"
     inkscape:window-x="158"
     inkscape:window-y="244"
     inkscape:window-maximized="0"
     inkscape:current-layer="svg13" /><circle
     cx="11.994663"
     cy="12.020826"
     fill="#075fe4"
     id="circle2"
     style="fill:#ffffff;fill-opacity:1;stroke-width:0.315788"
     r="12" /><defs
     id="defs11"><clipPath
       id="clip0_2123_56549"><rect
         width="53.3158"
         height="52"
         fill="#ffffff"
         transform="translate(11,12)"
         id="rect8"
         x="0"
         y="0" /></clipPath></defs><path
     d="m 17.034322,7.8823742 c -1.812088,0 -3.179702,1.191891 -3.726747,3.0648738 C 12.452815,9.6191282 11.769007,8.1207522 11.392917,6.8266992 H 9.4782479 v 5.0059538 c 0,0.987567 -0.8205686,1.804864 -1.8120879,1.804864 -0.9915212,0 -1.8120897,-0.817297 -1.8120897,-1.804864 V 6.8607532 H 4.0077916 v 5.0059538 c 0,2.077296 1.6753278,3.745943 3.7267485,3.745943 2.0514196,0 3.7267549,-1.668647 3.7267549,-3.745943 v -0.85135 c 0.376092,0.749187 0.854757,1.566485 1.367614,2.281619 l -1.196664,5.550808 h 1.948853 l 0.820568,-4.052431 c 0.752186,0.476757 1.606946,0.74919 2.632656,0.74919 2.085612,0 3.795128,-1.702702 3.795128,-3.882161 0,-2.0773068 -1.709516,-3.7800088 -3.795128,-3.7800078 z m 0,5.7551428 c -0.752186,0 -1.538567,-0.340541 -2.153993,-0.85135 l 0.205141,-0.749189 v -0.03407 c 0.136764,-0.817296 0.581237,-2.1794688 1.983041,-2.1794688 1.0599,0 1.914663,0.8513608 1.914663,1.9070378 -0.0342,1.055677 -0.95733,1.907027 -1.948852,1.907027 z"
     id="path357"
     style="fill:#1b1f24;fill-opacity:1;stroke-width:0.341222" /></svg>
